# xmcd
#
# Track frame offsets: 
#        150
#        20859
#        39612
#        63225
#        82749
#        101827
#        114972
#        135630
#        155675
#        172207
#
# Disc length: 3145 seconds
#
# Revision: 0
# Processed by: cddbd v1.5.2PL0 Copyright (c) Steve Scherf et al.
# Submitted via: ExactAudioCopy v0.95b4
#
DISCID=830c470a
DTITLE=Cory Morrow - Vagrants and Kings
DYEAR=2008
DGENRE=Country
TTITLE0=He Carries Me
TTITLE1=Oh Lord, You Devil
TTITLE2=Ten Mile Road
TTITLE3=I Can Wait
TTITLE4=Love Finds Everyone
TTITLE5=All Said and Done
TTITLE6=My Baby and Me
TTITLE7=Ready to Rain
TTITLE8=Radiates
TTITLE9=Worth It
EXTD=
EXTT0=
EXTT1=
EXTT2=
EXTT3=
EXTT4=
EXTT5=
EXTT6=
EXTT7=
EXTT8=
EXTT9=
PLAYORDER=
